<?xml version="1.0" encoding="utf-8"?>
<!-- Generator: Adobe Illustrator 15.0.0, SVG Export Plug-In . SVG Version: 6.00 Build 0)  -->
<!DOCTYPE svg PUBLIC "-//W3C//DTD SVG 1.1//EN" "http://www.w3.org/Graphics/SVG/1.1/DTD/svg11.dtd">
<svg version="1.1" id="Layer_1" xmlns="http://www.w3.org/2000/svg" xmlns:xlink="http://www.w3.org/1999/xlink" x="0px" y="0px"
	 width="371px" height="363px" viewBox="14.5 -5.5 371 363" enable-background="new 14.5 -5.5 371 363" xml:space="preserve">
<path fill="#de7a48" d="M52.271,324.88c1.739,0.156,5.433,1.069,15.249-0.2c0,1.989,0.104,5.017,0.104,7.36
	c0,8.542-5.765,16.585-15.254,16.585c-11.72,0-17.335-9.58-17.335-19.519c0-10.585,8.646-19.764,18.43-19.764
	c5.464,0,8.296,0.495,12.221,3.174c-1.339,1.637-1.986,2.333-3.426,4.515c-1.193,1.791-1.739,2.979-2.884,4.77
	c-1.69-1.348-3.375-2.139-5.911-2.139c-4.42,0-6.851,4.173-6.851,10.185c0,4.274,2.679,8.599,5.757,8.599
	c5.663,0,4.769-5.066,4.672-5.765c-0.894-0.354-2.681-0.396-3.527-0.444c-0.945-0.051-0.996-0.051-1.644-0.051
	c0.057-1.191,0.155-2.038,0.201-3.229C52.125,327.419,52.224,325.727,52.271,324.88z"/>
<path fill="none" stroke="#de7a48" stroke-width="1.37" stroke-linecap="round" stroke-linejoin="round" stroke-miterlimit="1.4142" d="
	M52.271,324.88c1.739,0.156,5.433,1.069,15.249-0.2c0,1.989,0.104,5.017,0.104,7.36c0,8.542-5.765,16.585-15.254,16.585
	c-11.72,0-17.335-9.58-17.335-19.519c0-10.585,8.646-19.764,18.43-19.764c5.464,0,8.296,0.495,12.221,3.174
	c-1.339,1.637-1.986,2.333-3.426,4.515c-1.193,1.791-1.739,2.979-2.884,4.77c-1.69-1.348-3.375-2.139-5.911-2.139
	c-4.42,0-6.851,4.173-6.851,10.185c0,4.274,2.679,8.599,5.757,8.599c5.663,0,4.769-5.066,4.672-5.765
	c-0.894-0.354-2.681-0.396-3.527-0.444c-0.945-0.051-0.996-0.051-1.644-0.051c0.057-1.191,0.155-2.038,0.201-3.229
	C52.125,327.419,52.224,325.727,52.271,324.88z"/>
<path fill="#de7a48" d="M98.301,321.301c0-7.497-6.254-11.918-13.062-11.918c-7.252,0-16.064,4.396-16.064,13.087
	c0,0,6.806,0.258,9.052,0.258c0.448-1.84,3.655-3.365,5.688-3.365c2.338,0,4.62,1.81,4.356,6.268
	c-1.642-0.502-3.527-0.894-5.613-0.894c-1.638,0-3.976,0.692-6.01,2.036c-3.927,2.583-5.417,6.9-5.417,10.921
	c0,6.311,5.266,10.383,9.936,10.383c2.881,0,5.863-1.433,7.95-2.781c0,0,0.096,1.598,0.049,2.639
	c1.689,0.096,4.17-0.154,5.907-0.196c1.046-0.053,2.388-0.053,3.732-0.203C98.85,336.358,98.301,329.455,98.301,321.301z
	 M87.911,339.216l-0.41,0.286c-0.867,0.589-3.023,1.945-4.339,1.704c-1.672-0.301-2.754-0.885-3.396-1.81
	c-0.425-0.616-0.632-1.348-0.632-2.258c0-0.435,0.05-0.919,0.146-1.451c0.672-3.705,5.514-3.388,7.841-3.241l0.922,0.057
	L87.911,339.216z"/>
<path fill="none" stroke="#de7a48" stroke-width="1.37" stroke-linecap="round" stroke-linejoin="round" stroke-miterlimit="1.4142" d="
	M98.301,321.301c0-7.497-6.254-11.918-13.062-11.918c-7.252,0-16.064,4.396-16.064,13.087c0,0,6.806,0.258,9.052,0.258
	c0.448-1.84,3.655-3.365,5.688-3.365c2.338,0,4.62,1.81,4.356,6.268c-1.642-0.502-3.527-0.894-5.613-0.894
	c-1.638,0-3.976,0.692-6.01,2.036c-3.927,2.583-5.417,6.9-5.417,10.921c0,6.311,5.266,10.383,9.936,10.383
	c2.881,0,5.863-1.433,7.95-2.781c0,0,0.096,1.598,0.049,2.639c1.689,0.096,4.17-0.154,5.907-0.196
	c1.046-0.053,2.388-0.053,3.732-0.203C98.85,336.358,98.301,329.455,98.301,321.301z M87.911,339.216l-0.41,0.286
	c-0.867,0.589-3.023,1.945-4.339,1.704c-1.672-0.301-2.754-0.885-3.396-1.81c-0.425-0.616-0.632-1.348-0.632-2.258
	c0-0.435,0.05-0.919,0.146-1.451c0.672-3.705,5.514-3.388,7.841-3.241l0.922,0.057L87.911,339.216z"/>
<path fill="#de7a48" d="M171.678,333.004l-10.687,1.385c0.049,2.242-0.912,3.428-2.948,3.428c-2.831,0-3.685-2.954-4.084-6.333
	l17.291-3.124l-0.197-1.486c-1.542-11.675-7.702-17.285-16.097-17.285c-9.786,0-14.602,10.626-14.602,21.697
	c0,10.984,7.449,16.995,17.586,16.995c7.843,0,13.8-6.487,13.8-14.43L171.678,333.004z M153.722,326.454
	c-0.081-3.471,0.273-6.813,3.356-7.576c0.492-0.125,1.985-0.493,3.391,0.426c1.36,0.893,2.244,2.702,2.709,5.528l0.154,0.928
	l-9.584,1.84L153.722,326.454z"/>
<path fill="none" stroke="#de7a48" stroke-width="1.37" stroke-linecap="round" stroke-linejoin="round" stroke-miterlimit="1.4142" d="
	M171.678,333.004l-10.687,1.385c0.049,2.242-0.912,3.428-2.948,3.428c-2.831,0-3.685-2.954-4.084-6.333l17.291-3.124l-0.197-1.486
	c-1.542-11.675-7.702-17.285-16.097-17.285c-9.786,0-14.602,10.626-14.602,21.697c0,10.984,7.449,16.995,17.586,16.995
	c7.843,0,13.8-6.487,13.8-14.43L171.678,333.004z M153.722,326.454c-0.081-3.471,0.273-6.813,3.356-7.576
	c0.492-0.125,1.985-0.493,3.391,0.426c1.36,0.893,2.244,2.702,2.709,5.528l0.154,0.928l-9.584,1.84L153.722,326.454z"/>
<path fill="#de7a48" d="M173.327,311.468l-0.451-2.085l9.456,0.062c0,0,3.053,14.288,4.635,14.335
	c2.167,0.146,2.234-10.366,2.234-10.366l9.143-0.171c0,0-0.376,15.177,1.896,15.177c2.504-0.153,4.829-20.697,4.829-20.697
	l9.093-0.567l-0.502,2.131c-1.487,6.55-2.98,12.766-3.923,17.979c-0.895,4.92-3.326,20.364-3.326,20.364l-10.482,0.446
	c0,0-0.566-10.257-2.932-10.332c-2.123-0.068-3.329,9.993-3.329,9.993l-9.736,0.292c0,0-1.043-7.001-1.588-10.531
	C176.704,327.419,175.563,321.456,173.327,311.468z"/>
<path fill="none" stroke="#de7a48" stroke-width="1.37" stroke-linecap="round" stroke-linejoin="round" stroke-miterlimit="1.4142" d="
	M173.327,311.468l-0.451-2.085l9.456,0.062c0,0,3.053,14.288,4.635,14.335c2.167,0.146,2.234-10.366,2.234-10.366l9.143-0.171
	c0,0-0.376,15.177,1.896,15.177c2.504-0.153,4.829-20.697,4.829-20.697l9.093-0.567l-0.502,2.131
	c-1.487,6.55-2.98,12.766-3.923,17.979c-0.895,4.92-3.326,20.364-3.326,20.364l-10.482,0.446c0,0-0.566-10.257-2.932-10.332
	c-2.123-0.068-3.329,9.993-3.329,9.993l-9.736,0.292c0,0-1.043-7.001-1.588-10.531C176.704,327.419,175.563,321.456,173.327,311.468
	z"/>
<path fill="#de7a48" d="M235.09,332.09c1.046-0.399,2.187-0.755,3.08-1.486c2.73-2.293,4.516-5.222,4.516-9.098
	c0-9.734-11.922-11.071-19.523-11.861c-2.281-0.257-7.295-0.111-7.295-0.111s0.395,18.132,0.395,28.469c0,2.977,0,9.48,0,9.48
	l8.994,0.196c0,0-0.1-6.898-0.1-9.979c0-0.199,0-0.889,0-1.091c0,0,0.293,0,0.646,0l7.255,10.83c0,0,2.875-0.096,3.82-0.096
	c1.637,0,7.151,0.046,7.151,0.046L235.09,332.09z M227.757,327.099l-3.095,0.416l0.15-9.345l-0.15-1.139l1.121,0.193
	c0,0,3.274,0.581,3.235,0.569c3.72,1.232,4.279,3.37,4.279,4.53C233.298,326.601,230.094,326.89,227.757,327.099z"/>
<path fill="none" stroke="#de7a48" stroke-width="1.37" stroke-linecap="round" stroke-linejoin="round" stroke-miterlimit="1.4142" d="
	M235.09,332.09c1.046-0.399,2.187-0.755,3.08-1.486c2.73-2.293,4.516-5.222,4.516-9.098c0-9.734-11.922-11.071-19.523-11.861
	c-2.281-0.257-7.295-0.111-7.295-0.111s0.395,18.132,0.395,28.469c0,2.977,0,9.48,0,9.48l8.994,0.196c0,0-0.1-6.898-0.1-9.979
	c0-0.199,0-0.889,0-1.091c0,0,0.293,0,0.646,0l7.255,10.83c0,0,2.875-0.096,3.82-0.096c1.637,0,7.151,0.046,7.151,0.046
	L235.09,332.09z M227.757,327.099l-3.095,0.416l0.15-9.345l-0.15-1.139l1.121,0.193c0,0,3.274,0.581,3.235,0.569
	c3.72,1.232,4.279,3.37,4.279,4.53C233.298,326.601,230.094,326.89,227.757,327.099z"/>
<path fill="#de7a48" d="M251.629,309.594c2.037,0,6.409-0.399,6.409-0.399s-0.294,6.602-0.294,9.144
	c0,4.611-0.201,10.728-0.104,16.142c0.104,6.898,0.494,12.813,0.494,12.813s-1.04-0.052-2.33-0.098
	c-1.49-0.053-3.385,0.046-4.378,0.046c-0.938,0-4.366,0.446-4.366,0.446s-0.247-6.107-0.293-12.714
	c-0.06-5.36-0.157-11.121-0.157-14.105c0-3.729,0.603-11.627,0.603-11.627S250.539,309.594,251.629,309.594z"/>
<path fill="none" stroke="#de7a48" stroke-width="1.37" stroke-linecap="round" stroke-linejoin="round" stroke-miterlimit="1.4142" d="
	M251.629,309.594c2.037,0,6.409-0.399,6.409-0.399s-0.294,6.602-0.294,9.144c0,4.611-0.201,10.728-0.104,16.142
	c0.104,6.898,0.494,12.813,0.494,12.813s-1.04-0.052-2.33-0.098c-1.49-0.053-3.385,0.046-4.378,0.046
	c-0.938,0-4.366,0.446-4.366,0.446s-0.247-6.107-0.293-12.714c-0.06-5.36-0.157-11.121-0.157-14.105
	c0-3.729,0.603-11.627,0.603-11.627S250.539,309.594,251.629,309.594z"/>
<path fill="#de7a48" d="M277.648,324.88c1.623,0.146,7.166,1.361,15.256-0.2c0,1.989,0.099,5.017,0.099,7.36
	c0,8.542-5.762,16.585-15.253,16.585c-11.726,0-17.335-9.58-17.335-19.519c0-10.585,8.644-19.764,18.429-19.764
	c5.463,0,8.295,0.495,12.219,3.174c-1.34,1.637-1.98,2.333-3.428,4.515c-1.189,1.791-1.741,2.979-2.883,4.77
	c-1.68-1.348-3.369-2.139-5.908-2.139c-4.42,0-6.857,4.173-6.857,10.185c0,4.274,2.685,8.599,5.764,8.599
	c5.664,0,4.77-5.066,4.674-5.765c-0.903-0.354-4.527-0.495-5.168-0.495C277.303,330.994,277.604,325.727,277.648,324.88z"/>
<path fill="none" stroke="#de7a48" stroke-width="1.37" stroke-linecap="round" stroke-linejoin="round" stroke-miterlimit="1.4142" d="
	M277.648,324.88c1.623,0.146,7.166,1.361,15.256-0.2c0,1.989,0.099,5.017,0.099,7.36c0,8.542-5.762,16.585-15.253,16.585
	c-11.726,0-17.335-9.58-17.335-19.519c0-10.585,8.644-19.764,18.429-19.764c5.463,0,8.295,0.495,12.219,3.174
	c-1.34,1.637-1.98,2.333-3.428,4.515c-1.189,1.791-1.741,2.979-2.883,4.77c-1.68-1.348-3.369-2.139-5.908-2.139
	c-4.42,0-6.857,4.173-6.857,10.185c0,4.274,2.685,8.599,5.764,8.599c5.664,0,4.77-5.066,4.674-5.765
	c-0.903-0.354-4.527-0.495-5.168-0.495C277.303,330.994,277.604,325.727,277.648,324.88z"/>
<path fill="#de7a48" d="M308.533,338.346c0,3.028-0.1,4.613-0.1,7.602v1.832h-1.839c-0.987,0-6.228-0.245-7.2-0.245h-1.939
	c0,0,0.68-16.953-0.195-28.371c0-1.383-1.146-9.325-0.896-10.275c2.75,0.627,11.178,1.19,12.023,0.997
	c0.103,0.891,0.445,14.01,0.445,15.105c0.788,0,3.977,0.238,5.457,0c0-1.403,0.357-13.664,0.357-13.664h1.838
	c0.986,0,9.784,0.249,9.784,0.249s-1.091,10.127-1.091,13.356c0,4.175,0.341,23.046,0.341,23.046s-8.292-0.24-9.536-0.24h-1.742
	c0,0-0.44-13.914-0.44-14.91c-0.647,0-4.025,0.061-5.067,0.061C308.732,334.615,308.533,336.558,308.533,338.346z"/>
<path fill="none" stroke="#de7a48" stroke-width="1.37" stroke-linecap="round" stroke-linejoin="round" stroke-miterlimit="1.4142" d="
	M308.533,338.346c0,3.028-0.1,4.613-0.1,7.602v1.832h-1.839c-0.987,0-6.228-0.245-7.2-0.245h-1.939c0,0,0.68-16.953-0.195-28.371
	c0-1.383-1.146-9.325-0.896-10.275c2.75,0.627,11.178,1.19,12.023,0.997c0.103,0.891,0.445,14.01,0.445,15.105
	c0.788,0,3.977,0.238,5.457,0c0-1.403,0.357-13.664,0.357-13.664h1.838c0.986,0,9.784,0.249,9.784,0.249s-1.091,10.127-1.091,13.356
	c0,4.175,0.341,23.046,0.341,23.046s-8.292-0.24-9.536-0.24h-1.742c0,0-0.44-13.914-0.44-14.91c-0.647,0-4.025,0.061-5.067,0.061
	C308.732,334.615,308.533,336.558,308.533,338.346z"/>
<path fill="#de7a48" d="M330.086,311.221l28.509-1.935l-0.305,10.526l-7.396,0.448l-0.402,28.462l-10.238-0.499l0.557-26.964
	l-10.783,0.29L330.086,311.221z"/>
<path fill="none" stroke="#de7a48" stroke-width="1.37" stroke-linecap="round" stroke-linejoin="round" stroke-miterlimit="1.4142" d="
	M330.086,311.221l28.509-1.935l-0.305,10.526l-7.396,0.448l-0.402,28.462l-10.238-0.499l0.557-26.964l-10.783,0.29L330.086,311.221z
	"/>
<path fill="#de7a48" d="M109.069,311.912c2.831,0,3.043,0.304,3.043,0.304s5.56,11.842,7.243,11.723
	c2.284-0.167,7.018-12.359,7.018-12.359l1.67,0.033c2.932,0,9.492-0.74,9.492-0.74s-0.304,7.15-0.304,9.981
	c0,6.509,0,10.331,0,16.829c0,3.787,0.354,11.729,0.354,11.729s-5.61,0.008-8.192,0.008c-1.494,0,2.32-15.929-3.04-15.346
	c-1.448,0.14-3.115,12.978-3.115,12.978h-6.678c0,0-1.344-13.555-4.543-13.124c-2.461,0.434-0.336,14.665-2.174,14.768
	c-1.642,0.093-6.731-0.073-6.731-0.073s-0.101-5.119-0.101-8.048c0-5.963,0.146-9.339,0.146-15.206c0-4.807-0.346-6.607-0.54-11.414
	c0-0.749-0.101-1.997-0.101-1.997S106.188,311.912,109.069,311.912z"/>
<path fill="none" stroke="#de7a48" stroke-width="1.37" stroke-linecap="round" stroke-linejoin="round" stroke-miterlimit="1.4142" d="
	M109.069,311.912c2.831,0,3.043,0.304,3.043,0.304s5.56,11.842,7.243,11.723c2.284-0.167,7.018-12.359,7.018-12.359l1.67,0.033
	c2.932,0,9.492-0.74,9.492-0.74s-0.304,7.15-0.304,9.981c0,6.509,0,10.331,0,16.829c0,3.787,0.354,11.729,0.354,11.729
	s-5.61,0.008-8.192,0.008c-1.494,0,2.32-15.929-3.04-15.346c-1.448,0.14-3.115,12.978-3.115,12.978h-6.678
	c0,0-1.344-13.555-4.543-13.124c-2.461,0.434-0.336,14.665-2.174,14.768c-1.642,0.093-6.731-0.073-6.731-0.073
	s-0.101-5.119-0.101-8.048c0-5.963,0.146-9.339,0.146-15.206c0-4.807-0.346-6.607-0.54-11.414c0-0.749-0.101-1.997-0.101-1.997
	S106.188,311.912,109.069,311.912z"/>
<path fill="#de7a48" d="M369.81,309.776c4.038,0,7.234,3.219,7.234,7.514c0,4.333-3.196,7.553-7.234,7.553
	c-4.112,0-7.298-3.22-7.298-7.553C362.512,312.995,365.697,309.776,369.81,309.776z M369.81,326.481
	c4.957,0,9.274-3.777,9.274-9.191c0-5.365-4.317-9.152-9.274-9.152c-5.024,0-9.345,3.787-9.345,9.152
	C360.465,322.704,364.785,326.481,369.81,326.481z M367.947,318.031h1.665l2.706,4.521h1.859l-2.939-4.604
	c1.609-0.176,2.764-0.963,2.764-2.859c0-2.15-1.279-3.014-3.83-3.014h-3.955v10.478h1.73V318.031z M367.947,316.593v-3.077h2.065
	c1.034,0,2.253,0.166,2.253,1.45c0,1.5-1.127,1.627-2.404,1.627H367.947z"/>
</svg>
